<svg width="30" height="30" viewBox="0 0 30 30" fill="none" xmlns="http://www.w3.org/2000/svg">
<path d="M22.4687 21.7631L21.221 20.505L19.9733 21.7631L22.4687 24.2793L26.2118 20.5049L24.9641 19.2468L22.4687 21.7631Z" fill="currentColor"/>
<path d="M23.8133 14.1785C23.9555 10.8213 22.7157 7.58733 20.3353 5.18711C15.6806 0.49356 8.14649 0.493026 3.49125 5.18711C-1.16352 9.88066 -1.16399 17.4775 3.49125 22.1717C7.09354 25.8042 12.3822 26.603 16.7497 24.6545C17.9502 26.8598 20.2755 28.3582 22.9415 28.3582C26.8334 28.3582 29.9997 25.1655 29.9997 21.2412C29.9997 17.6145 27.2953 14.6129 23.8133 14.1785ZM4.73895 6.44522C6.65529 4.51289 9.20315 3.44872 11.9133 3.44872C17.7594 3.44872 22.3348 8.3887 22.0477 14.1811C19.5419 14.5019 17.4844 16.1322 16.5075 18.3086C16.0164 17.8493 15.4629 17.4693 14.8655 17.1775C15.8473 16.3337 16.4717 15.0791 16.4717 13.6794C16.4717 11.145 14.4268 9.08303 11.9133 9.08303C9.3999 9.08303 7.35498 11.145 7.35498 13.6794C7.35498 15.0804 7.98057 16.3362 8.964 17.18C7.23035 18.0305 5.90895 19.6064 5.38977 21.5137C0.847283 17.6784 0.513316 10.7061 4.73895 6.44522ZM9.11945 13.6794C9.11945 12.1261 10.3728 10.8623 11.9133 10.8623C13.4538 10.8623 14.7071 12.1261 14.7071 13.6794C14.7071 15.2328 13.4538 16.4966 11.9133 16.4966C10.3728 16.4966 9.11945 15.2328 9.11945 13.6794ZM16.101 23.0001C13.1541 24.3432 9.7401 24.1568 6.96467 22.604C7.30934 20.1608 9.39666 18.2758 11.9133 18.2758C13.5161 18.2758 14.9989 19.0378 15.9409 20.3296C15.8272 21.2305 15.8845 22.1433 16.101 23.0001ZM22.9416 26.579C19.9815 26.579 17.5752 24.1138 17.6497 21.1053C17.7215 18.2609 20.0371 15.9405 22.8734 15.9045L22.9461 15.9036C25.8629 15.906 28.2352 18.2995 28.2352 21.2413C28.2352 24.1845 25.8605 26.579 22.9416 26.579Z" fill="currentColor"/>
</svg>
