<svg width="30" height="30" viewBox="0 0 30 30" fill="none" xmlns="http://www.w3.org/2000/svg">
<rect x="2" y="2" width="26" height="26" rx="2.33333" stroke="currentColor" stroke-width="2"/>
<path d="M9.16429 15.8609H11.6196L11.3126 14.7882C11.1917 14.3997 11.0243 13.8259 10.8104 13.0666C10.6058 12.2985 10.471 11.8041 10.4059 11.5833H10.3501C10.0897 12.6428 9.79671 13.7111 9.4712 14.7882L9.16429 15.8609ZM12.7914 19.9001L12.066 17.3839H8.71788L7.99246 19.9001H5.8999L9.20614 10.1001H11.6335L14.9537 19.9001H12.7914Z" fill="currentColor"/>
<path d="M16.1621 19.9001V10.1001H18.9941C20.6123 10.1001 21.8678 10.5062 22.7607 11.3185C23.6535 12.1307 24.0999 13.3447 24.0999 14.9604C24.0999 16.576 23.6535 17.8033 22.7607 18.642C21.8771 19.4807 20.6588 19.9001 19.1057 19.9001H16.1621ZM18.2268 18.3242H18.8685C20.9518 18.3242 21.9934 17.2029 21.9934 14.9604C21.9934 12.762 20.9518 11.6628 18.8685 11.6628H18.2268V18.3242Z" fill="currentColor"/>
</svg>
