<svg width="30" height="30" viewBox="0 0 30 30" fill="none" xmlns="http://www.w3.org/2000/svg">
<path d="M10.992 14.0414H12.6783L12.4675 13.2889C12.3845 13.0163 12.2695 12.6137 12.1226 12.0811C11.9821 11.5422 11.8895 11.1954 11.8448 11.0405H11.8064C11.6276 11.7838 11.4264 12.5332 11.2028 13.2889L10.992 14.0414ZM13.4832 16.875L12.9849 15.1098H10.6854L10.1872 16.875H8.75L11.0208 10H12.6879L14.9683 16.875H13.4832Z" fill="currentColor"/>
<path d="M15.7982 16.875V10H17.7432C18.8547 10 19.717 10.2849 20.3302 10.8547C20.9434 11.4245 21.25 12.2762 21.25 13.4096C21.25 14.5431 20.9434 15.404 20.3302 15.9924C19.7234 16.5808 18.8866 16.875 17.8199 16.875H15.7982ZM17.2163 15.7694H17.657C19.0878 15.7694 19.8032 14.9828 19.8032 13.4096C19.8032 11.8674 19.0878 11.0963 17.657 11.0963H17.2163V15.7694Z" fill="currentColor"/>
<path d="M16.0012 2.5H13.9989C7.65839 2.5 2.5 7.49624 2.5 13.6375C2.5 19.7787 7.65839 24.7748 13.9988 24.7748H16.0011C16.9907 24.7748 17.9703 24.6531 18.9196 24.4125L21.8775 27.2757C22.0288 27.4221 22.231 27.5 22.4369 27.5C22.5388 27.5 22.6417 27.4809 22.7396 27.4416C23.0351 27.323 23.2278 27.0436 23.2278 26.7337V22.3004C24.4801 21.3181 25.5204 20.0773 26.2505 18.6911C27.0797 17.1167 27.5 15.4164 27.5 13.6375C27.5 7.49624 22.3416 2.5 16.0012 2.5ZM21.9607 21.3147C21.7623 21.4594 21.6456 21.6861 21.6456 21.9268V24.8846L19.7096 23.0104C19.5589 22.8647 19.3569 22.7861 19.1502 22.7861C19.0727 22.7861 18.9944 22.7972 18.918 22.82C17.9763 23.1003 16.9949 23.2424 16.0012 23.2424H13.9989C8.53078 23.2424 4.08228 18.9336 4.08228 13.6375C4.08228 8.34129 8.53085 4.03254 13.9989 4.03254H16.0012C21.4692 4.03254 25.9177 8.34129 25.9177 13.6375C25.9177 16.6819 24.4755 19.4802 21.9607 21.3147Z" fill="currentColor"/>
</svg>
