<svg width="30" height="30" viewBox="0 0 30 30" fill="none" xmlns="http://www.w3.org/2000/svg">
<path d="M24.7227 5.27727C22.1257 2.68026 18.6727 1.25 15 1.25C11.3271 1.25 7.87428 2.68026 5.27727 5.27727C2.68026 7.87428 1.25 11.3271 1.25 15C1.25 18.6727 2.68026 22.1257 5.27727 24.7227C7.87428 27.3197 11.3271 28.75 15 28.75C18.6727 28.75 22.1257 27.3197 24.7227 24.7227C27.3197 22.1257 28.75 18.6727 28.75 15C28.75 11.3271 27.3197 7.87428 24.7227 5.27727ZM8.14325 25.011C8.71834 21.6998 11.5877 19.2574 15 19.2574C18.4125 19.2574 21.2817 21.6998 21.8567 25.011C19.9045 26.3523 17.5425 27.1387 15 27.1387C12.4575 27.1387 10.0955 26.3523 8.14325 25.011ZM10.628 13.2741C10.628 10.8632 12.5893 8.90213 15 8.90213C17.4107 8.90213 19.372 10.8634 19.372 13.2741C19.372 15.6848 17.4107 17.6461 15 17.6461C12.5893 17.6461 10.628 15.6848 10.628 13.2741ZM23.2524 23.8934C22.8187 22.3519 21.9575 20.9533 20.7502 19.8608C20.0096 19.1905 19.1666 18.6616 18.2602 18.2887C19.8984 17.2202 20.9835 15.3716 20.9835 13.2741C20.9835 9.97488 18.2992 7.2908 15 7.2908C11.7008 7.2908 9.01669 9.97488 9.01669 13.2741C9.01669 15.3716 10.1018 17.2202 11.7398 18.2887C10.8336 18.6616 9.99041 19.1903 9.24978 19.8606C8.04276 20.9531 7.18128 22.3517 6.74761 23.8931C4.35894 21.6748 2.86133 18.5093 2.86133 15C2.86133 8.30669 8.30669 2.86133 15 2.86133C21.6933 2.86133 27.1387 8.30669 27.1387 15C27.1387 18.5095 25.6411 21.6751 23.2524 23.8934Z" fill="currentColor" stroke="currentColor" stroke-width="0.333333"/>
</svg>
