<svg width="184" height="184" viewBox="0 0 184 184" fill="none" xmlns="http://www.w3.org/2000/svg">
<rect opacity="0.8" x="0.375" y="0.375" width="183.25" height="183.25" rx="7.625" fill="#FAFAFA" stroke="#838383" stroke-width="0.75" stroke-dasharray="2 2"/>
<path d="M100.812 80.3125C100.812 82.3845 99.9894 84.3716 98.5243 85.8368C97.0591 87.3019 95.072 88.125 93 88.125C90.928 88.125 88.9409 87.3019 87.4757 85.8368C86.0106 84.3716 85.1875 82.3845 85.1875 80.3125C85.1875 78.2405 86.0106 76.2534 87.4757 74.7882C88.9409 73.3231 90.928 72.5 93 72.5C95.072 72.5 97.0591 73.3231 98.5243 74.7882C99.9894 76.2534 100.812 78.2405 100.812 80.3125Z" fill="#D8D8D8"/>
<path d="M74.25 66.25C72.5924 66.25 71.0027 66.9085 69.8306 68.0806C68.6585 69.2527 68 70.8424 68 72.5V91.25C68 92.9076 68.6585 94.4973 69.8306 95.6694C71.0027 96.8415 72.5924 97.5 74.25 97.5H111.75C113.408 97.5 114.997 96.8415 116.169 95.6694C117.342 94.4973 118 92.9076 118 91.25V72.5C118 70.8424 117.342 69.2527 116.169 68.0806C114.997 66.9085 113.408 66.25 111.75 66.25H108.088C106.43 66.2496 104.841 65.5909 103.669 64.4188L101.081 61.8312C99.9094 60.6591 98.32 60.0004 96.6625 60H89.3375C87.68 60.0004 86.0906 60.6591 84.9188 61.8312L82.3313 64.4188C81.1594 65.5909 79.57 66.2496 77.9125 66.25H74.25ZM75.8125 72.5C75.3981 72.5 75.0007 72.3354 74.7076 72.0424C74.4146 71.7493 74.25 71.3519 74.25 70.9375C74.25 70.5231 74.4146 70.1257 74.7076 69.8326C75.0007 69.5396 75.3981 69.375 75.8125 69.375C76.2269 69.375 76.6243 69.5396 76.9174 69.8326C77.2104 70.1257 77.375 70.5231 77.375 70.9375C77.375 71.3519 77.2104 71.7493 76.9174 72.0424C76.6243 72.3354 76.2269 72.5 75.8125 72.5ZM103.938 80.3125C103.938 83.2133 102.785 85.9953 100.734 88.0465C98.6828 90.0977 95.9008 91.25 93 91.25C90.0992 91.25 87.3172 90.0977 85.266 88.0465C83.2148 85.9953 82.0625 83.2133 82.0625 80.3125C82.0625 77.4117 83.2148 74.6297 85.266 72.5785C87.3172 70.5273 90.0992 69.375 93 69.375C95.9008 69.375 98.6828 70.5273 100.734 72.5785C102.785 74.6297 103.938 77.4117 103.938 80.3125Z" fill="#D8D8D8"/>
</svg>
