<svg width="30" height="30" viewBox="0 0 30 30" fill="none" xmlns="http://www.w3.org/2000/svg">
<path d="M13.9167 15.3563V3.62493C13.9167 3.32594 13.674 3.08325 13.375 3.08325C7.10249 3.08325 2 8.67217 2 15.5415C2 22.4109 7.58892 27.9999 14.4583 27.9999C17.5317 27.9999 19.1946 27.4431 21.3028 25.7097C21.5292 25.5234 21.566 25.1908 21.3862 24.959L13.9167 15.3563ZM14.4583 26.9166C8.1858 26.9166 3.08331 21.8141 3.08331 15.5416C3.08331 9.47061 7.40906 4.49487 12.8333 4.1818V15.5416C12.8333 15.6618 12.8734 15.7788 12.9481 15.8742L20.2021 25.2006C18.4915 26.5071 17.0648 26.9166 14.4583 26.9166Z" fill="currentColor"/>
<path d="M15.5417 15H27.4583C27.7573 15 28 14.7573 28 14.4583C28 7.58892 22.4111 2 15.5417 2C15.2427 2 15 2.24268 15 2.54168V14.4583C15 14.7573 15.2427 15 15.5417 15ZM16.0833 3.09631C21.9257 3.3715 26.6285 8.07424 26.9036 13.9166H16.0833V3.09631Z" fill="currentColor"/>
<path d="M27.4583 16.0833H16.625C16.417 16.0833 16.2253 16.2035 16.1354 16.392C16.0454 16.5805 16.0725 16.8037 16.2036 16.9651L23.2453 25.6826C23.3395 25.8007 23.4782 25.8722 23.6288 25.883C23.6418 25.8841 23.6537 25.8841 23.6667 25.8841C23.8032 25.8841 23.9354 25.8321 24.0361 25.7389C26.5548 23.3892 28 20.0677 28 16.6249C28 16.3259 27.7573 16.0833 27.4583 16.0833ZM23.7133 24.5376L17.7593 17.1666H26.9037C26.7705 19.9204 25.6308 22.554 23.7133 24.5376Z" fill="currentColor"/>
</svg>
