<svg width="30" height="30" viewBox="0 0 30 30" fill="none" xmlns="http://www.w3.org/2000/svg">
<path fill-rule="evenodd" clip-rule="evenodd" d="M22.0728 7.70466H24.7136C26.2476 7.70466 27.5 8.97753 27.5 10.5419V20.8221C27.5 22.231 26.5 23.397 25.1699 23.6204V25.9621C25.1699 26.1856 25.0728 26.4091 24.9175 26.5646C24.7621 26.7298 24.5485 26.8172 24.3155 26.8172C24.0922 26.8172 23.8786 26.7298 23.7136 26.5646L20.8592 23.6496H10.7233C9.21845 23.6496 7.99515 22.435 7.93689 20.9192L6.2767 22.6099C5.95631 22.9403 5.3932 22.9403 5.07282 22.6099C4.91748 22.4545 4.8301 22.2407 4.8301 22.0075V19.6658C3.5 19.4423 2.5 18.2763 2.5 16.8674V6.58725C2.5 5.02287 3.75243 3.75 5.29612 3.75H19.2767C20.8204 3.75 22.0728 5.02287 22.0728 6.58725V7.70466ZM5.29612 17.9848H5.68447C6.15049 17.9848 6.52913 18.3735 6.52913 18.8399V19.9184L8.17961 18.2374C8.33495 18.0723 8.55825 17.9848 8.78155 17.9848H19.2767C19.8689 17.9848 20.3641 17.4796 20.3641 16.8674V6.58725C20.3641 5.9751 19.8786 5.46984 19.2767 5.46984H5.29612C4.70388 5.46984 4.20874 5.9751 4.20874 6.58725V16.8674C4.20874 17.4796 4.69417 17.9848 5.29612 17.9848ZM19.267 19.7047H9.64563V20.8123C9.64563 21.4245 10.1311 21.9298 10.733 21.9298H21.199C21.4223 21.9298 21.6359 22.0172 21.801 22.1824L23.4612 23.8731V22.7945C23.4612 22.3281 23.8495 21.9395 24.3155 21.9395H24.7039C25.2961 21.9395 25.7913 21.4342 25.7913 20.8221V10.5419C25.7913 9.92976 25.3058 9.42449 24.7039 9.42449H22.0631V16.8674C22.0534 18.4318 20.801 19.7047 19.267 19.7047ZM13.0242 10.5807C13.4319 10.9888 13.4319 11.669 13.0242 12.0868C12.6164 12.5046 11.9465 12.5046 11.5387 12.0868C11.1309 11.6787 11.1309 10.9985 11.5387 10.5807C11.9465 10.1629 12.6164 10.1629 13.0242 10.5807ZM9.14077 12.0868C9.54854 11.669 9.54854 10.9888 9.14077 10.5807C8.733 10.1629 8.0631 10.1629 7.65533 10.5807C7.24757 10.9985 7.24757 11.6787 7.65533 12.0868C8.0631 12.5046 8.733 12.5046 9.14077 12.0868ZM16.9076 10.5807C17.3154 10.9888 17.3154 11.669 16.9076 12.0868C16.4999 12.5046 15.83 12.5046 15.4222 12.0868C15.0144 11.6787 15.0144 10.9985 15.4222 10.5807C15.83 10.1629 16.4999 10.1629 16.9076 10.5807Z" fill="currentColor"/>
</svg>
