<svg width="28" height="29" viewBox="0 0 28 29" fill="none" xmlns="http://www.w3.org/2000/svg">
<path d="M27.2481 12.1799C27.2472 12.1792 27.2466 12.1784 27.2459 12.1777L15.823 0.755234C15.3361 0.268124 14.6887 0 14.0002 0C13.3116 0 12.6642 0.268124 12.1771 0.755234L0.760176 12.172C0.756331 12.1758 0.752271 12.1799 0.74864 12.1837C-0.251217 13.1893 -0.249508 14.821 0.753553 15.824C1.21182 16.2825 1.81686 16.5478 2.46399 16.5758C2.49048 16.5784 2.51698 16.5797 2.54368 16.5797H2.99874V24.9857C2.99874 26.6494 4.3524 28.0028 6.01605 28.0028H10.4851C10.9382 28.0028 11.3055 27.6354 11.3055 27.1824V20.5919C11.3055 19.8328 11.9231 19.2154 12.6822 19.2154H15.3181C16.0772 19.2154 16.6946 19.8328 16.6946 20.5919V27.1824C16.6946 27.6354 17.0619 28.0028 17.515 28.0028H21.9841C23.6479 28.0028 25.0014 26.6494 25.0014 24.9857V16.5797H25.4235C26.1119 16.5797 26.7592 16.3116 27.2466 15.8242C28.2507 14.8197 28.2511 13.1851 27.2481 12.1799ZM26.0863 14.6641C25.9091 14.8412 25.6737 14.9389 25.4235 14.9389H24.181C23.7278 14.9389 23.3606 15.3061 23.3606 15.7593V24.9857C23.3606 25.7446 22.7431 26.362 21.9841 26.362H18.3354V20.5919C18.3354 18.9283 16.982 17.5746 15.3181 17.5746H12.6822C11.0183 17.5746 9.66467 18.9283 9.66467 20.5919V26.362H6.01605C5.25718 26.362 4.63954 25.7446 4.63954 24.9857V15.7593C4.63954 15.3061 4.27228 14.9389 3.81914 14.9389H2.59795C2.58513 14.938 2.57252 14.9374 2.55949 14.9372C2.31508 14.9329 2.08584 14.8359 1.91407 14.6639C1.54874 14.2986 1.54874 13.704 1.91407 13.3385C1.91428 13.3385 1.91428 13.3383 1.9145 13.338L1.91514 13.3374L13.3376 1.91532C13.5145 1.73821 13.7498 1.64079 14.0002 1.64079C14.2503 1.64079 14.4856 1.73821 14.6627 1.91532L26.0826 13.3351C26.0843 13.3368 26.0863 13.3385 26.088 13.3402C26.4514 13.7062 26.4507 14.2994 26.0863 14.6641Z" fill="currentColor"/>
</svg>