<svg width="30" height="30" viewBox="0 0 30 30" fill="none" xmlns="http://www.w3.org/2000/svg">
<path fill-rule="evenodd" clip-rule="evenodd" d="M5.88365 15L9.8174 18.9325C10.0618 19.1769 10.0618 19.5731 9.8174 19.8175C9.57301 20.0619 9.17678 20.0619 8.9324 19.8175L3.9324 14.8175C3.81484 14.7002 3.74878 14.541 3.74878 14.375C3.74878 14.209 3.81484 14.0498 3.9324 13.9325L8.9324 8.93251C9.17678 8.68812 9.57301 8.68812 9.8174 8.93251C10.0618 9.17689 10.0618 9.57312 9.8174 9.81751L5.88365 13.75H19.3749C19.7201 13.75 19.9999 14.0298 19.9999 14.375C19.9999 14.7202 19.7201 15 19.3749 15H5.88365ZM13.1249 5C12.7797 5 12.4999 4.72018 12.4999 4.375C12.4999 4.02982 12.7797 3.75 13.1249 3.75H23.1249C24.8508 3.75 26.2499 5.14911 26.2499 6.875V23.125C26.2499 24.8509 24.8508 26.25 23.1249 26.25H13.1249C12.7797 26.25 12.4999 25.9702 12.4999 25.625C12.4999 25.2798 12.7797 25 13.1249 25H23.1249C24.1604 25 24.9999 24.1605 24.9999 23.125V6.875C24.9999 5.83947 24.1604 5 23.1249 5H13.1249Z" fill="currentColor"/>
<path d="M5.88365 15V14.9H5.64217L5.81295 15.0707L5.88365 15ZM9.8174 18.9325L9.88811 18.8618L9.8881 18.8618L9.8174 18.9325ZM8.9324 19.8175L8.86169 19.8882L8.9324 19.8175ZM3.9324 14.8175L4.00311 14.7468L4.00302 14.7467L3.9324 14.8175ZM3.9324 13.9325L4.00302 14.0033L4.00311 14.0032L3.9324 13.9325ZM8.9324 8.93251L9.00311 9.00322L8.9324 8.93251ZM9.8174 9.81751L9.8881 9.88823L9.88811 9.88822L9.8174 9.81751ZM5.88365 13.75L5.81295 13.6793L5.64217 13.85H5.88365V13.75ZM5.81295 15.0707L9.7467 19.0032L9.8881 18.8618L5.95435 14.9293L5.81295 15.0707ZM9.74669 19.0032C9.95202 19.2085 9.95202 19.5415 9.74669 19.7468L9.88811 19.8882C10.1715 19.6048 10.1715 19.1452 9.88811 18.8618L9.74669 19.0032ZM9.74669 19.7468C9.54135 19.9521 9.20844 19.9521 9.00311 19.7468L8.86169 19.8882C9.14513 20.1717 9.60467 20.1717 9.88811 19.8882L9.74669 19.7468ZM9.00311 19.7468L4.00311 14.7468L3.86169 14.8882L8.86169 19.8882L9.00311 19.7468ZM4.00302 14.7467C3.90427 14.6482 3.84878 14.5145 3.84878 14.375H3.64878C3.64878 14.5676 3.72541 14.7523 3.86178 14.8883L4.00302 14.7467ZM3.84878 14.375C3.84878 14.2355 3.90427 14.1018 4.00302 14.0033L3.86178 13.8617C3.72541 13.9977 3.64878 14.1824 3.64878 14.375H3.84878ZM4.00311 14.0032L9.00311 9.00322L8.86169 8.86179L3.86169 13.8618L4.00311 14.0032ZM9.00311 9.00322C9.20844 8.79788 9.54135 8.79788 9.74669 9.00322L9.88811 8.86179C9.60467 8.57836 9.14513 8.57836 8.86169 8.86179L9.00311 9.00322ZM9.74669 9.00322C9.95202 9.20855 9.95202 9.54146 9.74669 9.74679L9.88811 9.88822C10.1715 9.60478 10.1715 9.14523 9.88811 8.86179L9.74669 9.00322ZM9.7467 9.74678L5.81295 13.6793L5.95435 13.8207L9.8881 9.88823L9.7467 9.74678ZM5.88365 13.85H19.3749V13.65H5.88365V13.85ZM19.3749 13.85C19.6648 13.85 19.8999 14.0851 19.8999 14.375H20.0999C20.0999 13.9746 19.7753 13.65 19.3749 13.65V13.85ZM19.8999 14.375C19.8999 14.665 19.6648 14.9 19.3749 14.9V15.1C19.7753 15.1 20.0999 14.7754 20.0999 14.375H19.8999ZM19.3749 14.9H5.88365V15.1H19.3749V14.9ZM13.1249 4.9C12.8349 4.9 12.5999 4.66495 12.5999 4.375H12.3999C12.3999 4.77541 12.7245 5.1 13.1249 5.1V4.9ZM12.5999 4.375C12.5999 4.08505 12.8349 3.85 13.1249 3.85V3.65C12.7245 3.65 12.3999 3.97459 12.3999 4.375H12.5999ZM13.1249 3.85H23.1249V3.65H13.1249V3.85ZM23.1249 3.85C24.7955 3.85 26.1499 5.20434 26.1499 6.875H26.3499C26.3499 5.09388 24.906 3.65 23.1249 3.65V3.85ZM26.1499 6.875V23.125H26.3499V6.875H26.1499ZM26.1499 23.125C26.1499 24.7957 24.7955 26.15 23.1249 26.15V26.35C24.906 26.35 26.3499 24.9061 26.3499 23.125H26.1499ZM23.1249 26.15H13.1249V26.35H23.1249V26.15ZM13.1249 26.15C12.8349 26.15 12.5999 25.9149 12.5999 25.625H12.3999C12.3999 26.0254 12.7245 26.35 13.1249 26.35V26.15ZM12.5999 25.625C12.5999 25.3351 12.8349 25.1 13.1249 25.1V24.9C12.7245 24.9 12.3999 25.2246 12.3999 25.625H12.5999ZM13.1249 25.1H23.1249V24.9H13.1249V25.1ZM23.1249 25.1C24.2156 25.1 25.0999 24.2158 25.0999 23.125H24.8999C24.8999 24.1053 24.1052 24.9 23.1249 24.9V25.1ZM25.0999 23.125V6.875H24.8999V23.125H25.0999ZM25.0999 6.875C25.0999 5.78424 24.2156 4.9 23.1249 4.9V5.1C24.1052 5.1 24.8999 5.89469 24.8999 6.875H25.0999ZM23.1249 4.9H13.1249V5.1H23.1249V4.9Z" fill="currentColor"/>
</svg>
