<svg width="30" height="30" viewBox="0 0 30 30" fill="none" xmlns="http://www.w3.org/2000/svg">
<path d="M15.2934 11.7561C13.8146 11.7561 12.6157 12.9995 12.6157 14.5334C12.6157 16.0673 13.8145 17.3108 15.2934 17.3108C16.7721 17.3108 17.971 16.0674 17.971 14.5334C17.971 12.9995 16.7722 11.7561 15.2934 11.7561ZM15.2934 15.9882C14.5187 15.9882 13.8908 15.3369 13.8908 14.5334C13.8908 13.7299 14.5187 13.0786 15.2934 13.0786C16.068 13.0786 16.6959 13.7299 16.6959 14.5334C16.6959 15.3369 16.068 15.9882 15.2934 15.9882Z" fill="currentColor" stroke="currentColor" stroke-width="0.5"/>
<path d="M25.9721 5.40783L8.56747 3.35795C7.89199 3.25834 7.20759 3.46288 6.68678 3.92005C6.16603 4.33888 5.83222 4.95971 5.76236 5.63933L5.44362 8.35055H4.45538C3.0528 8.35055 2.00086 9.63999 2.00086 11.0948V24.6177C1.96553 26.005 3.02113 27.1594 4.35868 27.196C4.39089 27.1969 4.42317 27.1971 4.45538 27.1967H21.9556C23.3582 27.1967 24.6333 26.0725 24.6333 24.6177V24.0887C25.0681 24.0016 25.4806 23.8214 25.8446 23.5597C26.361 23.1087 26.6917 22.4699 26.769 21.7743L28.2353 8.35055C28.3848 6.89238 27.3759 5.58066 25.9721 5.40783ZM23.3582 24.6177C23.3582 25.3451 22.6569 25.8741 21.9556 25.8741H4.45538C3.82188 25.8934 3.29326 25.3764 3.27465 24.7193C3.27367 24.6854 3.2741 24.6516 3.27593 24.6177V22.171L8.21682 18.4018C8.81037 17.9291 9.64638 17.9711 10.1932 18.501L13.6677 21.6751C14.1954 22.1346 14.8596 22.3915 15.5485 22.4025C16.0871 22.4093 16.6169 22.2605 17.0786 21.9726L23.3582 18.2034V24.6177H23.3582ZM23.3582 16.6494L16.4091 20.8485C15.8124 21.2152 15.0571 21.1488 14.5283 20.6832L11.0219 17.476C10.017 16.5803 8.54813 16.5254 7.48362 17.3437L3.27593 20.5178V11.0948C3.27593 10.3674 3.75409 9.67309 4.45538 9.67309H21.9556C22.7048 9.7053 23.3099 10.3187 23.3582 11.0948V16.6494ZM26.9615 8.17202C26.961 8.17638 26.9607 8.18081 26.9602 8.18518L25.462 21.6089C25.4646 21.957 25.3115 22.2867 25.0476 22.5016C24.9201 22.6339 24.6332 22.7 24.6332 22.7662V11.0948C24.5829 9.58854 23.4082 8.38466 21.9555 8.35055H6.71863L7.00552 5.7716C7.06775 5.43764 7.23609 5.13501 7.48368 4.91193C7.76325 4.71144 8.10126 4.61797 8.44001 4.64739L25.8128 6.73037C26.5137 6.79942 27.028 7.44487 26.9615 8.17202Z" fill="currentColor" stroke="currentColor" stroke-width="0.5"/>
</svg>
