<svg width="30" height="30" viewBox="0 0 30 30" fill="none" xmlns="http://www.w3.org/2000/svg">
<path d="M20.5699 3.75C19.5552 3.75 18.73 4.61113 18.73 5.66998V6.01705L7.97882 10.5041C7.80449 10.5776 7.68994 10.7537 7.68994 10.95V17.67C7.68994 17.8663 7.80449 18.0425 7.97882 18.1155L18.73 22.6025V22.9501C18.73 24.009 19.5552 24.87 20.5699 24.87C21.5847 24.87 22.4099 24.0089 22.4099 22.9501V5.66998C22.4099 4.61108 21.5847 3.75 20.5699 3.75ZM21.49 22.95C21.49 23.4794 21.0774 23.91 20.5699 23.91C20.0625 23.91 19.6499 23.4795 19.6499 22.95V22.278C19.6499 22.0812 19.5354 21.905 19.3606 21.8321L8.60991 17.345V11.275L19.3606 6.7879C19.5354 6.71443 19.6499 6.53832 19.6499 6.342V5.66998C19.6499 5.14056 20.0625 4.70996 20.5699 4.70996C21.0774 4.70996 21.49 5.1405 21.49 5.66998V22.95Z" fill="currentColor" stroke="currentColor" stroke-width="0.666667" stroke-linecap="square" stroke-linejoin="round"/>
<path d="M8.15001 10.47H4.93002C2.90093 10.47 1.25 12.1927 1.25 14.31C1.25 16.4273 2.90093 18.15 4.93002 18.15H8.15001C8.4039 18.15 8.60999 17.9355 8.60999 17.67V10.95C8.60999 10.685 8.4039 10.47 8.15001 10.47ZM7.69002 17.19H4.93002C3.40787 17.19 2.17002 15.8983 2.17002 14.31C2.17002 12.7217 3.40787 11.43 4.93002 11.43H7.69002V17.19Z" fill="currentColor" stroke="currentColor" stroke-width="0.666667" stroke-linecap="square" stroke-linejoin="round"/>
<path d="M24.8554 12.4144L22.0954 11.4544C21.9546 11.4059 21.8014 11.4304 21.6809 11.5206C21.5608 11.6109 21.49 11.7558 21.49 11.9099V16.7099C21.49 16.864 21.5608 17.0089 21.6809 17.0997C21.7604 17.1592 21.8548 17.1899 21.95 17.1899C21.9988 17.1899 22.048 17.1817 22.0954 17.1649L24.8554 16.2049C25.0435 16.1401 25.17 15.9567 25.17 15.7498V12.8698C25.17 12.663 25.0435 12.4801 24.8554 12.4144ZM24.25 15.4038L22.41 16.0436V12.5757L24.25 13.2155V15.4038Z" fill="currentColor" stroke="currentColor" stroke-width="0.666667" stroke-linecap="square" stroke-linejoin="round"/>
<path d="M10.4074 23.6666L9.94558 23.1842L8.59641 17.5538C8.54536 17.3402 8.36132 17.1899 8.15022 17.1899H4.47014C4.32939 17.1899 4.19689 17.2572 4.10951 17.3714C4.02213 17.4866 3.98989 17.6368 4.02213 17.7799L5.86211 25.9399C5.91225 26.1602 6.10038 26.31 6.3097 26.31C6.3387 26.31 6.36765 26.3071 6.39708 26.3009L9.85167 25.6049C9.85625 25.6039 9.86089 25.603 9.86547 25.602C10.0679 25.5545 10.2528 25.4489 10.4 25.2977C10.6098 25.0812 10.7261 24.7932 10.728 24.4851C10.7299 24.1773 10.6167 23.8874 10.4074 23.6666ZM9.75372 24.6141C9.73027 24.6386 9.70084 24.6554 9.6686 24.664L6.65696 25.2712L5.05109 18.1499H7.79088L9.08442 23.5461C9.10464 23.6306 9.14652 23.7079 9.20539 23.7693L9.75556 24.3434C9.80202 24.3919 9.80844 24.449 9.80844 24.4792C9.80801 24.5085 9.80067 24.5656 9.75372 24.6141Z" fill="currentColor" stroke="currentColor" stroke-width="0.666667" stroke-linecap="square" stroke-linejoin="round"/>
<path d="M28.8501 13.8301H26.0901V14.7901H28.8501V13.8301Z" fill="currentColor" stroke="currentColor" stroke-width="0.666667" stroke-linecap="square" stroke-linejoin="round"/>
<path d="M28.1523 8.13932L25.8525 9.57959L26.326 10.4027L28.6257 8.96238L28.1523 8.13932Z" fill="currentColor" stroke="currentColor" stroke-width="0.666667" stroke-linecap="square" stroke-linejoin="round"/>
<path d="M26.3298 18.2181L25.8564 19.0413L28.1565 20.4813L28.6298 19.6581L26.3298 18.2181Z" fill="currentColor" stroke="currentColor" stroke-width="0.666667" stroke-linecap="square" stroke-linejoin="round"/>
<path d="M19.6502 6.1499H18.7302V22.4699H19.6502V6.1499Z" fill="currentColor" stroke="currentColor" stroke-width="0.666667" stroke-linecap="square" stroke-linejoin="round"/>
<path d="M5.61996 12.6299H4.69995V15.0299H5.61996V12.6299Z" fill="currentColor" stroke="currentColor" stroke-width="0.666667" stroke-linecap="square" stroke-linejoin="round"/>
</svg>
