<svg width="30" height="30" viewBox="0 0 30 30" fill="none" xmlns="http://www.w3.org/2000/svg">
<path d="M27.75 15C27.75 22.0416 22.0416 27.75 15 27.75C7.95837 27.75 2.25 22.0416 2.25 15C2.25 7.95837 7.95837 2.25 15 2.25C22.0416 2.25 27.75 7.95837 27.75 15Z" stroke="currentColor" stroke-width="2"/>
<path d="M11.25 22.5H13.1715V17.0487H15.6715C18.9979 17.0487 21.25 15.6999 21.25 12.7963C21.25 9.79905 18.9773 8.75 15.5888 8.75H11.25V22.5ZM13.1715 15.6437V10.1737H15.3409C18.0062 10.1737 19.3492 10.8106 19.3492 12.7963C19.3492 14.7633 18.0888 15.6437 15.4236 15.6437H13.1715Z" fill="currentColor"/>
</svg>
