<svg width="24" height="24" viewBox="0 0 24 24" fill="none" xmlns="http://www.w3.org/2000/svg">
<path d="M10.875 3C6.53284 3 3 6.53284 3 10.875C3 15.2174 6.53284 18.75 10.875 18.75C15.2174 18.75 18.75 15.2174 18.75 10.875C18.75 6.53284 15.2174 3 10.875 3ZM10.875 17.2962C7.3344 17.2962 4.45385 14.4156 4.45385 10.875C4.45385 7.33444 7.3344 4.45385 10.875 4.45385C14.4156 4.45385 17.2962 7.3344 17.2962 10.875C17.2962 14.4156 14.4156 17.2962 10.875 17.2962Z" fill="#838383"/>
<path d="M20.7869 19.7584L16.6166 15.5881C16.3325 15.304 15.8723 15.304 15.5881 15.5881C15.304 15.872 15.304 16.3327 15.5881 16.6166L19.7584 20.7869C19.9004 20.929 20.0864 21 20.2726 21C20.4586 21 20.6448 20.929 20.7869 20.7869C21.071 20.503 21.071 20.0423 20.7869 19.7584Z" fill="#838383"/>
</svg>
