<svg width="24" height="24" viewBox="0 0 24 24" fill="none" xmlns="http://www.w3.org/2000/svg">
<path d="M3 6.45C2.69624 6.45 2.45 6.69624 2.45 7C2.45 7.30376 2.69624 7.55 3 7.55V6.45ZM21 7.55C21.3038 7.55 21.55 7.30376 21.55 7C21.55 6.69624 21.3038 6.45 21 6.45V7.55ZM3 7.55H21V6.45H3V7.55Z" fill="#333333"/>
<path d="M15 7V5C15 3.89543 14.1046 3 13 3H11C9.89543 3 9 3.89543 9 5V7" stroke="#333333" stroke-width="1.1"/>
<path d="M6 7V19C6 20.1046 6.89543 21 8 21H16C17.1046 21 18 20.1046 18 19V7" stroke="#333333" stroke-width="1.1"/>
<path d="M14 10V18" stroke="#333333" stroke-width="1.1" stroke-linecap="round"/>
<path d="M10 10V18" stroke="#333333" stroke-width="1.1" stroke-linecap="round"/>
</svg>
