<svg width="24" height="24" viewBox="0 0 24 24" fill="none" xmlns="http://www.w3.org/2000/svg">
<path d="M9 21.5H23" stroke="#333333" stroke-width="1.1" stroke-linecap="round" stroke-linejoin="round"/>
<path d="M20.3774 4.43359L18.5649 2.62109C17.7368 1.79297 16.3895 1.79297 15.5614 2.62109C14.7821 3.40078 2.87348 15.3102 2.07778 16.1059C1.99302 16.1906 1.93638 16.3031 1.91606 16.4137L1.00981 21.3074C0.974657 21.4973 1.0352 21.6922 1.17153 21.8285C1.30825 21.9652 1.50317 22.0254 1.69263 21.9902L6.58599 21.084C6.69927 21.0629 6.8102 21.0055 6.8938 20.9223L20.3778 7.4375C21.2075 6.60703 21.2075 5.26367 20.3774 4.43359ZM2.31723 20.6828L2.86528 17.7227L5.27739 20.1348L2.31723 20.6828ZM6.47934 19.6789L3.32075 16.5203L14.8524 4.98789L18.011 8.14648L6.47934 19.6789ZM19.5489 6.60859L18.8395 7.31797L15.6809 4.15937L16.3903 3.45C16.7614 3.07891 17.3653 3.07891 17.7364 3.45L19.5489 5.2625C19.9208 5.63437 19.9208 6.23633 19.5489 6.60859Z" fill="#333333"/>
</svg>
